<svg width="27" height="24" viewBox="0 0 27 24" fill="none" xmlns="http://www.w3.org/2000/svg">
<g clip-path="url(#clip0_343_57)">
<path d="M23.6131 12.0107L13.6665 5.09981C13.5665 5.03037 13.4329 5.03037 13.3329 5.09981L3.38625 12.0109C3.30965 12.064 3.26422 12.1504 3.26422 12.2425V23.7162C3.26422 23.8729 3.39355 24 3.55312 24H10.3162C10.4757 24 10.6051 23.8729 10.6051 23.7162V18.4604C10.6051 16.9457 11.7686 15.6233 13.3074 15.5254C14.9934 15.4183 16.3949 16.7299 16.3949 18.363V23.7162C16.3949 23.8729 16.5242 24 16.6838 24H23.4465C23.606 24 23.7354 23.8729 23.7354 23.7162V12.2424C23.7352 12.1503 23.6897 12.0639 23.6131 12.0107Z" fill="#074298"/>
<path d="M26.4133 8.66566L22.1142 5.67874V1.7422C22.1142 1.52603 21.9358 1.35072 21.7156 1.35072H19.3112C19.0912 1.35072 18.9128 1.52603 18.9128 1.7422V3.45428L14.3013 0.250275C13.8213 -0.0832622 13.1785 -0.0832622 12.6986 0.250275L0.586439 8.66566C-0.0394552 9.10039 -0.187788 9.95131 0.254776 10.5659C0.69792 11.1812 1.56381 11.3259 2.18924 10.8917L13.4998 3.03298L24.8104 10.8917C25.0539 11.0609 25.3333 11.1419 25.6108 11.1419C26.046 11.1419 26.4743 10.9415 26.7449 10.5658C27.1876 9.95131 27.0392 9.10051 26.4133 8.66566Z" fill="#074298"/>
</g>
<defs>
<clipPath id="clip0_343_57">
<rect width="27" height="24" fill="white"/>
</clipPath>
</defs>
</svg>
