<svg width="162" height="31" viewBox="0 0 162 31" fill="none" xmlns="http://www.w3.org/2000/svg">
<path d="M42.9026 2.67592C41.7131 4.73005 40.7683 7.65594 40.7683 11.6674C40.7683 15.6011 41.7131 18.5074 42.9026 20.5995H41.0484C39.929 18.8756 38.6864 15.9497 38.7047 11.6478C38.7218 7.34597 39.929 4.39986 41.0484 2.67532H42.9026V2.67592Z" fill="#074298"/>
<path d="M43.8646 2.23056H57.2117V4.49789H52.0341C52.0341 5.68026 54.8685 7.42378 58.1748 7.44338C57.6145 8.14116 57.1073 8.97494 56.8619 9.67211C54.2905 9.36212 51.334 7.73377 50.6175 6.55202C50.0059 7.75338 47.1885 9.4779 44.4426 9.9245C44.1624 9.30391 43.5325 8.33537 42.9374 7.73438C45.9471 7.73438 48.9555 5.68026 48.9555 4.49789H43.8646V2.23056ZM42.4125 11.1638H58.7864V13.509H51.8595V19.6903H49.3571V13.509H42.4125V11.1638Z" fill="#074298"/>
<path d="M58.2944 20.6007C59.484 18.546 60.4288 15.5821 60.4288 11.6092C60.4288 7.65596 59.484 4.74967 58.2944 2.67593H60.1487C61.2681 4.36188 62.5107 7.28778 62.4924 11.6288C62.4759 15.9497 61.2681 18.837 60.1487 20.6013H58.2944V20.6007Z" fill="#074298"/>
<path d="M70.4318 17.3428C70.4318 18.1753 71.6037 18.9129 74.7348 18.9129C78.0056 18.9129 79.1433 18.1753 79.1433 17.3428C79.1433 16.5292 78.0062 15.9086 74.7348 15.9086C71.6043 15.9086 70.4318 16.5292 70.4318 17.3428ZM68.0875 2.84808H81.5048V4.97941H68.0875V2.84808ZM72.0059 5.40702C73.0557 5.40702 73.2827 5.5026 73.2827 5.67781C73.2827 5.81381 73.1253 6.00739 73.1253 6.27878V6.33698L73.2827 7.38273H76.0995L76.3968 5.48421H77.5686C78.688 5.48421 78.9511 5.58161 78.9511 5.7556C78.9511 5.90998 78.7405 6.12317 78.7057 6.39457L78.4951 7.38212H81.592V9.51344H68.0344V7.38212H70.9036L70.6583 5.4064H72.0059V5.40702ZM66.5482 10.6192H82.9226V12.9631H76.0122V13.8937C80.0704 14.1847 81.7495 15.6967 81.7495 17.3244C81.7495 19.1261 79.7207 20.7729 74.7348 20.7729C69.8715 20.7729 67.8256 19.1261 67.8256 17.3244C67.8256 15.6967 69.5218 14.1645 73.5104 13.8937V12.9631H66.5482V10.6192Z" fill="#074298"/>
<path d="M100.272 2.38373C101.445 2.38373 101.724 2.46031 101.724 2.69311C101.724 2.9259 101.427 3.33269 101.427 4.01148V13.7963H98.8905V8.5259H95.6892V6.23959H98.8905V2.38373H100.272ZM91.089 17.0714C91.089 18.0406 92.2609 18.7966 95.0606 18.7966C97.8072 18.7966 98.9619 18.0406 98.9619 17.0714C98.9619 16.161 97.8071 15.4247 95.0789 15.4247C92.2603 15.4247 91.089 16.1604 91.089 17.0714ZM101.567 17.0524C101.567 18.9889 99.5381 20.7722 95.0606 20.7722C90.511 20.7722 88.4829 18.9889 88.4829 17.0524C88.4829 15.1337 90.511 13.3895 95.0606 13.3895C99.5375 13.3895 101.567 15.1343 101.567 17.0524ZM92.2603 2.80889C93.1178 2.80889 93.3278 2.9063 93.3278 3.11888C93.3278 3.35168 93.0831 3.71987 93.0831 4.24366C93.0831 5.96759 94.377 9.20408 97.1767 10.463C96.5816 11.0052 95.9346 11.7612 95.3395 12.4975C93.7996 11.4702 92.3659 9.76523 91.9637 8.40888C91.4729 9.93983 90.1607 11.684 88.3766 12.9625C87.9042 12.3426 87.1169 11.5676 86.418 11.0634C89.0071 9.66844 90.7033 7.30432 90.7033 2.80827H92.2603V2.80889Z" fill="#074298"/>
<path d="M120.177 2.38309C121.158 2.38309 121.403 2.45968 121.403 2.65449C121.403 2.84808 121.194 3.15806 121.194 3.64326V15.7738H118.657V2.3837H120.177V2.38309ZM109.21 7.75091C109.21 9.30085 109.84 10.3858 111.239 10.3858C112.551 10.3858 113.181 9.30085 113.181 7.75091C113.181 6.23896 112.551 5.15461 111.239 5.15461C109.84 5.15461 109.21 6.23896 109.21 7.75091ZM109.63 14.2613C110.626 14.2613 110.87 14.3587 110.87 14.5908C110.87 14.804 110.661 15.114 110.661 15.5796V17.711H121.367V20.0751H108.142V14.2613H109.63ZM115.681 7.75091C115.681 10.3674 114.265 12.6727 111.239 12.6727C108.107 12.6727 106.673 10.3674 106.673 7.75091C106.673 5.1344 108.108 2.84807 111.239 2.84807C114.265 2.84807 115.681 5.1344 115.681 7.75091Z" fill="#074298"/>
<path d="M139.803 2.38311C140.975 2.38311 141.255 2.46091 141.255 2.69248C141.255 2.92651 140.958 3.33268 140.958 4.01086V20.5401H138.42V11.0444H135.535V8.68088H138.42V2.38251H139.803V2.38311ZM126.665 3.95266H135.464V6.31738H129.202V14.2429H129.867C131.686 14.2429 134.17 14.0677 136.339 13.6223C136.409 14.3391 136.514 15.2305 136.583 15.9681C134.222 16.452 131.108 16.7614 128.763 16.7614H126.664V3.95266H126.665Z" fill="#074298"/>
<path d="M154.144 3.11948C154.916 3.11948 155.264 3.25548 155.264 3.56547C155.264 3.72108 155.195 3.91466 155.037 4.16583C155.037 5.46459 157.609 9.14647 161.72 9.84425C161.212 10.406 160.564 11.3556 160.074 12.1306C157.417 11.4328 154.531 9.12686 153.689 7.13093C153.025 9.18445 150.087 11.5492 147.69 12.3627C147.2 11.646 146.517 10.8312 145.853 10.1726C149.386 9.39766 152.325 6.00678 152.325 3.11887H154.144V3.11948ZM145.591 15.9864H162V18.3505H145.591V15.9864Z" fill="#074298"/>
<path d="M41.6508 26.6994C41.8284 26.5358 41.9175 26.2552 41.9175 25.8576C41.9175 25.6812 41.8931 25.5274 41.8461 25.3963C41.7979 25.2665 41.7356 25.1593 41.6593 25.0759C41.5782 24.9877 41.4878 24.9222 41.3865 24.8799C41.2846 24.8382 41.1802 24.8168 41.0728 24.8168H40.9642C40.9221 24.8168 40.8799 24.8199 40.8378 24.8235C40.7951 24.8284 40.7548 24.8364 40.7139 24.8505C40.6736 24.8634 40.6443 24.8817 40.6248 24.9032C40.6016 24.9295 40.5851 24.9608 40.5754 24.9963C40.5656 25.0312 40.5595 25.0686 40.5558 25.1084C40.5516 25.1445 40.5497 25.1813 40.5497 25.2223V25.3283V26.9463H40.9062C41.2248 26.945 41.4726 26.8623 41.6508 26.6994ZM42.8251 25.2873C42.9057 25.4594 42.946 25.6585 42.946 25.8846C42.946 26.194 42.8831 26.4452 42.7592 26.6369C42.6347 26.8287 42.4821 26.9769 42.3021 27.078C42.122 27.1846 41.9303 27.2544 41.7253 27.2906C41.5208 27.3255 41.3359 27.3384 41.1705 27.3298L40.5503 27.3102V28.37C40.5503 28.4766 40.5601 28.5771 40.579 28.672C40.598 28.7658 40.6248 28.8387 40.659 28.8877C40.7048 28.9624 40.7597 29.02 40.8232 29.0592C40.8854 29.0996 40.9514 29.1333 41.0209 29.1591C41.0667 29.1854 41.1052 29.2136 41.1357 29.2424C41.1656 29.2712 41.1815 29.3073 41.1815 29.3514C41.1815 29.3907 41.168 29.4213 41.1387 29.4409C41.11 29.4605 41.0783 29.4709 41.0435 29.4709H39.2003C39.1618 29.4709 39.1295 29.4611 39.1026 29.4445C39.0757 29.4268 39.0617 29.3986 39.0617 29.3576C39.0617 29.322 39.0764 29.2914 39.1057 29.2657C39.1343 29.2387 39.1734 29.2118 39.2228 29.1854C39.2882 29.1591 39.3498 29.1266 39.4096 29.0892C39.4694 29.0513 39.5268 28.9912 39.5848 28.9079C39.619 28.854 39.6464 28.778 39.6653 28.6782C39.6843 28.5789 39.6934 28.4766 39.6934 28.37V25.479C39.6934 25.3645 39.6879 25.2707 39.6769 25.1978C39.6653 25.1255 39.6422 25.06 39.608 25.0024C39.5616 24.9369 39.5079 24.8793 39.4468 24.8309C39.3858 24.7819 39.3211 24.7421 39.2521 24.7114C39.21 24.6986 39.1746 24.6777 39.1459 24.6514C39.1179 24.6256 39.1032 24.592 39.1032 24.5515C39.1032 24.5166 39.1136 24.489 39.1349 24.4694C39.1551 24.4492 39.1856 24.4394 39.2234 24.4394H41.251C41.2852 24.4394 41.3224 24.4413 41.3627 24.4462C41.4024 24.4504 41.4421 24.4523 41.4799 24.4523C41.6642 24.4658 41.8443 24.4958 42.0207 24.5423C42.1965 24.5889 42.3527 24.6777 42.4913 24.8107C42.6341 24.9565 42.7452 25.1151 42.8251 25.2873Z" fill="#0B4198"/>
<path d="M46.7765 29.0127C46.9145 28.8975 47.0274 28.7394 47.1153 28.5354C47.2074 28.3375 47.2758 28.1017 47.3191 27.8297C47.3631 27.5583 47.385 27.2673 47.385 26.9579C47.385 26.6528 47.3631 26.3649 47.3191 26.0929C47.2752 25.8215 47.2068 25.5856 47.1153 25.3878C47.0274 25.1838 46.9145 25.0232 46.7765 24.9062C46.638 24.7898 46.4781 24.7316 46.2938 24.7316C46.1064 24.7316 45.9446 24.7917 45.8079 24.9093C45.6724 25.0294 45.5583 25.1887 45.4667 25.3878C45.3782 25.5905 45.3129 25.827 45.2684 26.0959C45.2244 26.3655 45.2025 26.6528 45.2025 26.9579C45.2025 27.2624 45.2226 27.5509 45.2653 27.8229C45.3074 28.0943 45.3746 28.3296 45.4667 28.5287C45.5546 28.7321 45.6675 28.8926 45.8055 29.009C45.9428 29.126 46.1064 29.1848 46.2938 29.1848C46.4781 29.1848 46.638 29.1272 46.7765 29.0127ZM47.1006 24.5552C47.3515 24.6949 47.5706 24.8799 47.7586 25.1151C47.9417 25.3541 48.0888 25.631 48.1974 25.9471C48.3067 26.2632 48.3616 26.5995 48.3616 26.9573C48.3616 27.3194 48.3067 27.6588 48.1974 27.9749C48.0888 28.291 47.9417 28.566 47.7586 28.8007C47.5706 29.0396 47.3515 29.2246 47.1006 29.3612C46.8498 29.496 46.5812 29.5634 46.2938 29.5634C46.0063 29.5634 45.7365 29.496 45.4844 29.3612C45.2305 29.2246 45.0132 29.0396 44.8289 28.8007C44.6415 28.566 44.4944 28.291 44.387 27.9749C44.2802 27.6581 44.2271 27.3194 44.2271 26.9573C44.2271 26.5995 44.2802 26.2626 44.387 25.9471C44.4944 25.6304 44.6415 25.3534 44.8289 25.1151C45.0169 24.8799 45.236 24.6943 45.4869 24.5552C45.7377 24.4149 46.0069 24.3457 46.2938 24.3457C46.5806 24.3457 46.8504 24.4149 47.1006 24.5552Z" fill="#0B4198"/>
<path d="M52.3465 29.0127C52.4845 28.8975 52.5974 28.7394 52.6853 28.5354C52.7774 28.3375 52.8452 28.1017 52.8898 27.8297C52.9337 27.5583 52.9557 27.2673 52.9557 26.9579C52.9557 26.6528 52.9337 26.3649 52.8898 26.0929C52.8452 25.8215 52.7774 25.5856 52.6853 25.3878C52.5974 25.1838 52.4845 25.0232 52.3465 24.9062C52.2086 24.7898 52.0481 24.7316 51.8644 24.7316C51.677 24.7316 51.5153 24.7917 51.3785 24.9093C51.243 25.0294 51.1283 25.1887 51.0373 25.3878C50.9488 25.5905 50.8823 25.827 50.839 26.0959C50.795 26.3655 50.7731 26.6528 50.7731 26.9579C50.7731 27.2624 50.7938 27.5509 50.8365 27.8229C50.8787 28.0943 50.9452 28.3296 51.0373 28.5287C51.1252 28.7321 51.2381 28.8926 51.3761 29.009C51.5134 29.126 51.677 29.1848 51.8644 29.1848C52.0487 29.1848 52.2086 29.1272 52.3465 29.0127ZM52.6719 24.5552C52.9227 24.6949 53.1412 24.8799 53.3292 25.1151C53.5123 25.3541 53.6594 25.631 53.768 25.9471C53.8779 26.2632 53.9322 26.5995 53.9322 26.9573C53.9322 27.3194 53.8779 27.6588 53.768 27.9749C53.6588 28.291 53.5123 28.566 53.3292 28.8007C53.1412 29.0396 52.9221 29.2246 52.6719 29.3612C52.4204 29.496 52.1518 29.5634 51.865 29.5634C51.5775 29.5634 51.3077 29.496 51.0557 29.3612C50.8024 29.2246 50.5845 29.0396 50.4001 28.8007C50.2134 28.566 50.0657 28.291 49.9582 27.9749C49.8514 27.6581 49.7983 27.3194 49.7983 26.9573C49.7983 26.5995 49.8514 26.2626 49.9582 25.9471C50.0657 25.6304 50.2134 25.3534 50.4001 25.1151C50.5887 24.8799 50.8072 24.6943 51.0581 24.5552C51.3089 24.4149 51.5775 24.3457 51.865 24.3457C52.1518 24.3457 52.4204 24.4149 52.6719 24.5552Z" fill="#0B4198"/>
<path d="M59.5517 24.4688C59.5804 24.4841 59.5945 24.5086 59.5945 24.5448C59.5945 24.584 59.5816 24.6183 59.5548 24.6477C59.5279 24.6765 59.4876 24.6998 59.4345 24.7163C59.3656 24.7439 59.3003 24.7849 59.2392 24.8431C59.177 24.9007 59.1245 24.962 59.0781 25.0288C59.0403 25.0864 59.0146 25.155 59.0036 25.2377C58.9914 25.3185 58.9859 25.3982 58.9859 25.4729V29.5175H58.6417L56.1142 25.6126V28.4435C56.1142 28.5225 56.1197 28.6028 56.132 28.6855C56.1435 28.767 56.1686 28.8338 56.2064 28.8877C56.2522 28.9581 56.3053 29.0212 56.3675 29.077C56.4292 29.1315 56.4939 29.1732 56.5629 29.1989C56.616 29.2216 56.6562 29.2455 56.6831 29.2712C56.7093 29.2981 56.7228 29.3312 56.7228 29.3704C56.7228 29.4109 56.7087 29.4378 56.6794 29.4507C56.6507 29.4635 56.619 29.4703 56.5848 29.4703H55.3043C55.2579 29.4703 55.2201 29.466 55.1896 29.4574C55.1584 29.4482 55.1432 29.4237 55.1432 29.3845C55.1432 29.349 55.1591 29.3165 55.1914 29.2877C55.2244 29.2589 55.2659 29.232 55.3153 29.2056C55.3727 29.1787 55.4337 29.1395 55.4996 29.0868C55.5643 29.0329 55.6217 28.9649 55.6717 28.8803C55.7023 28.8276 55.7248 28.7615 55.7407 28.6825C55.7554 28.6022 55.7639 28.5225 55.7639 28.4435V25.5201C55.7639 25.4049 55.7548 25.31 55.7377 25.2346C55.7206 25.1599 55.6949 25.0937 55.6602 25.0361C55.6144 24.9706 55.5607 24.9069 55.5002 24.8462C55.438 24.7868 55.3769 24.7421 55.3159 24.7108C55.2701 24.6937 55.2335 24.6716 55.2073 24.6446C55.1804 24.6177 55.167 24.5846 55.167 24.5454C55.167 24.5093 55.178 24.4829 55.2012 24.4658C55.2244 24.448 55.2549 24.4394 55.2927 24.4394H56.4121L58.6356 27.8401V25.4735C58.6356 25.3988 58.6277 25.321 58.6124 25.2413C58.5965 25.1623 58.574 25.0937 58.5434 25.0361C58.4934 24.9559 58.436 24.8878 58.3707 24.8309C58.306 24.7733 58.2438 24.7316 58.187 24.7047C58.1369 24.6826 58.0979 24.66 58.0698 24.6348C58.0405 24.611 58.0265 24.5785 58.0265 24.5387C58.0265 24.5037 58.0411 24.4792 58.0722 24.4664C58.1034 24.4529 58.137 24.4468 58.1754 24.4468H59.4565C59.4907 24.4455 59.5231 24.4535 59.5517 24.4688Z" fill="#0B4198"/>
<path d="M65.0101 27.1834C65.0326 27.2005 65.0442 27.2299 65.0442 27.2697C65.0442 27.2961 65.0381 27.3175 65.0247 27.3353C65.0113 27.3531 64.9954 27.3714 64.9759 27.3886C64.9533 27.4064 64.9301 27.4211 64.9069 27.4351C64.8837 27.448 64.8624 27.4621 64.8434 27.4744C64.7745 27.5136 64.7134 27.573 64.6591 27.6502C64.606 27.728 64.5792 27.8499 64.5792 28.0184V29.583H64.3039L64.0341 28.8932C63.8962 29.1058 63.7155 29.2736 63.4915 29.3974C63.2669 29.5205 63.0478 29.583 62.8336 29.583C62.554 29.583 62.2885 29.5181 62.0389 29.3876C61.7874 29.2577 61.5671 29.0623 61.3748 28.8013C61.1954 28.5618 61.0666 28.2934 60.9903 27.9926C60.914 27.6925 60.8755 27.3757 60.8755 27.0443C60.8755 26.6197 60.9372 26.2271 61.0587 25.865C61.1813 25.5023 61.3767 25.1887 61.6446 24.9234C61.843 24.7243 62.0456 24.5785 62.2501 24.4854C62.4545 24.3929 62.6938 24.3463 62.9648 24.3463C63.049 24.3463 63.1271 24.35 63.1979 24.3561C63.2687 24.3622 63.3401 24.3769 63.4128 24.399C63.4854 24.4161 63.5635 24.4468 63.6459 24.4884C63.7283 24.5295 63.8241 24.584 63.9352 24.6508C63.9511 24.6636 63.967 24.6753 63.9847 24.6845C64.0018 24.693 64.0182 24.6998 64.0341 24.7041C64.053 24.7133 64.0713 24.7175 64.0878 24.7175C64.1049 24.7175 64.1232 24.7126 64.1427 24.7041C64.1885 24.6906 64.2276 24.6612 64.2599 24.6146C64.2923 24.5675 64.3185 24.5117 64.3374 24.4455C64.3417 24.4186 64.3539 24.3873 64.3753 24.353C64.3967 24.3175 64.4278 24.2991 64.4705 24.2991C64.509 24.2991 64.5376 24.3175 64.5596 24.353C64.5804 24.388 64.5914 24.4302 64.5914 24.4786V26.3618C64.5914 26.4323 64.5804 26.4917 64.5596 26.5407C64.5376 26.5885 64.509 26.613 64.4705 26.613C64.4125 26.613 64.371 26.5861 64.3466 26.5334C64.3216 26.4807 64.3039 26.4274 64.2923 26.3747C64.2386 26.1578 64.1763 25.9477 64.1055 25.7449C64.0353 25.5421 63.9493 25.362 63.8504 25.2083C63.7503 25.0484 63.6374 24.9228 63.5111 24.8297C63.3853 24.7378 63.2413 24.69 63.0801 24.69C62.9001 24.69 62.7481 24.7261 62.6242 24.796C62.4997 24.8664 62.3911 24.9602 62.2995 25.0753C62.2116 25.1899 62.1378 25.3204 62.0786 25.4698C62.0187 25.6175 61.9705 25.7713 61.9315 25.9312C61.9052 26.0224 61.8863 26.1192 61.8741 26.2191C61.8631 26.3183 61.8533 26.4164 61.846 26.5131C61.8417 26.6106 61.8399 26.7086 61.8399 26.806V27.0774C61.8399 27.2753 61.8491 27.4731 61.8655 27.6673C61.8826 27.8615 61.9376 28.0821 62.0291 28.3302C62.117 28.5728 62.2452 28.7842 62.4112 28.963C62.5772 29.1419 62.7548 29.2314 62.9422 29.2314C63.0923 29.2314 63.2327 29.1744 63.3639 29.0629C63.4964 28.9496 63.5898 28.805 63.6429 28.6279C63.6661 28.5483 63.6807 28.4435 63.6868 28.3124C63.6923 28.1826 63.6948 28.0625 63.6948 27.951C63.6948 27.8058 63.6551 27.6967 63.5745 27.6238C63.4946 27.5503 63.4213 27.497 63.3572 27.4615C63.3334 27.4523 63.3096 27.4413 63.2852 27.4278C63.2602 27.4143 63.2382 27.4015 63.2193 27.388C63.1998 27.3708 63.1845 27.3524 63.1729 27.3347C63.1607 27.3169 63.1552 27.2973 63.1552 27.2746C63.1552 27.236 63.1674 27.206 63.19 27.1852C63.2132 27.1656 63.2529 27.1552 63.3109 27.1552H64.8898C64.9466 27.1564 64.9869 27.1656 65.0101 27.1834Z" fill="#0B4198"/>
<path d="M71.6629 26.5407C71.8448 26.6112 72.009 26.7067 72.1542 26.8256C72.2995 26.945 72.4185 27.0964 72.5101 27.2826C72.6022 27.4676 72.648 27.7004 72.648 27.9785C72.648 28.2352 72.6059 28.4686 72.5217 28.6782C72.4374 28.8883 72.3209 29.0592 72.1719 29.1915C72.0145 29.3337 71.8478 29.4341 71.6721 29.4942C71.4957 29.5536 71.329 29.5836 71.1722 29.5836C70.9964 29.5836 70.8298 29.5469 70.6735 29.474C70.5167 29.4017 70.3458 29.3055 70.1614 29.1854C70.1315 29.1725 70.0967 29.1566 70.0583 29.1395C70.0205 29.1217 69.9857 29.1192 69.9558 29.1333C69.9094 29.1542 69.8679 29.1995 69.8319 29.2687C69.7952 29.3367 69.7702 29.4047 69.7549 29.4709C69.747 29.4972 69.7299 29.5285 69.7055 29.564C69.6805 29.5989 69.6488 29.6161 69.6109 29.6161C69.5682 29.6161 69.5413 29.6002 69.5273 29.5671C69.5139 29.5334 69.5071 29.4899 69.5071 29.4372V27.7408C69.5071 27.6741 69.5163 27.6153 69.5358 27.5644C69.5554 27.5136 69.5853 27.4878 69.6274 27.4878C69.6506 27.4878 69.6689 27.4958 69.6854 27.5111C69.7 27.5264 69.7141 27.5454 69.7251 27.5675C69.733 27.5895 69.7403 27.6128 69.7482 27.6373C69.7562 27.6612 69.7641 27.6845 69.7714 27.7071C69.8062 27.8444 69.8624 27.9975 69.9411 28.1672C70.0192 28.3375 70.1193 28.4981 70.2426 28.6481C70.3604 28.8025 70.502 28.9312 70.665 29.0329C70.8273 29.134 71.0098 29.1848 71.2131 29.1848C71.4127 29.1848 71.5811 29.1131 71.7215 28.9698C71.8613 28.8252 71.9412 28.6389 71.9601 28.4092C71.9748 28.1795 71.9254 28.0006 71.8106 27.8726C71.6959 27.7439 71.5689 27.6557 71.431 27.6067L71.0404 27.4737C70.9677 27.4523 70.8829 27.4241 70.7852 27.3904C70.6876 27.3573 70.5887 27.3188 70.4892 27.2753C70.3891 27.2348 70.2933 27.1901 70.1999 27.1417C70.1053 27.0927 70.0259 27.0431 69.9606 26.9892C69.8074 26.8697 69.6878 26.7233 69.6017 26.5481C69.5151 26.3741 69.473 26.167 69.473 25.9281C69.473 25.6855 69.5114 25.4656 69.5877 25.2689C69.664 25.0723 69.7665 24.9056 69.8978 24.769C70.0272 24.6318 70.1791 24.527 70.3543 24.4535C70.5276 24.3806 70.7108 24.3438 70.9024 24.3438C71.0477 24.3438 71.1819 24.3641 71.3046 24.4039C71.4267 24.4437 71.5842 24.5233 71.7752 24.6422C71.7905 24.6557 71.8069 24.6679 71.8246 24.679C71.8411 24.6912 71.8594 24.6986 71.879 24.7022C71.8942 24.7108 71.9101 24.7169 71.9278 24.7194C71.9449 24.7218 71.9638 24.7182 71.9821 24.709C72.0285 24.6912 72.0682 24.6581 72.103 24.6091C72.1372 24.5613 72.164 24.5037 72.1829 24.437C72.1866 24.4106 72.1982 24.3794 72.2177 24.3445C72.2366 24.3095 72.2672 24.2918 72.3087 24.2918C72.3477 24.2918 72.377 24.3095 72.3984 24.3445C72.4191 24.38 72.4289 24.4223 72.4289 24.4707V26.0886C72.4289 26.159 72.4185 26.2191 72.3984 26.2675C72.3764 26.3165 72.3477 26.3404 72.3087 26.3404C72.2629 26.3404 72.2256 26.3116 72.197 26.254C72.1689 26.1958 72.1481 26.1431 72.1365 26.0941C72.0944 25.9348 72.0389 25.7743 71.9699 25.6114C71.9015 25.4472 71.8124 25.2983 71.7056 25.166C71.6025 25.0337 71.4798 24.924 71.3376 24.8382C71.1966 24.7525 71.0336 24.709 70.8499 24.709C70.6778 24.709 70.5197 24.7641 70.3763 24.875C70.2329 24.9853 70.1456 25.1666 70.1151 25.4184C70.0998 25.5372 70.112 25.6457 70.1529 25.7394C70.1926 25.8344 70.2469 25.9177 70.3165 25.9881C70.3854 26.0592 70.4605 26.1168 70.5429 26.1609C70.6247 26.2044 70.7028 26.2356 70.7754 26.2534L71.1197 26.3526C71.3003 26.4084 71.4816 26.469 71.6629 26.5407Z" fill="#0B4198"/>
<path d="M78.3993 24.4688C78.428 24.4841 78.442 24.5086 78.442 24.5448C78.442 24.584 78.4267 24.6183 78.3962 24.6477C78.3663 24.6765 78.3279 24.6998 78.2821 24.7163C78.2198 24.7439 78.1545 24.78 78.0837 24.8272C78.0129 24.8732 77.958 24.9363 77.9202 25.0153C77.8811 25.0913 77.8573 25.1672 77.8487 25.2444C77.8384 25.321 77.8341 25.3982 77.8341 25.4729V27.747C77.8341 27.8658 77.828 27.9785 77.8176 28.0858C77.8054 28.1911 77.7883 28.302 77.7651 28.4166C77.7193 28.6243 77.64 28.8142 77.5271 28.9869C77.4142 29.1597 77.283 29.2896 77.1334 29.3784C77.0034 29.458 76.863 29.5126 76.7117 29.5414C76.5603 29.5695 76.4169 29.5836 76.2777 29.5836C76.0946 29.5836 75.8914 29.5579 75.6704 29.5076C75.447 29.4562 75.2627 29.3625 75.1125 29.2252C74.9294 29.0666 74.8037 28.873 74.736 28.6463C74.6694 28.4184 74.6359 28.1654 74.6359 27.8873V25.4797C74.6359 25.3651 74.6291 25.2738 74.6163 25.2052C74.6023 25.1372 74.5779 25.0741 74.5443 25.0159C74.4979 24.9503 74.4424 24.8878 74.3777 24.8309C74.313 24.7733 74.2495 24.7316 74.1879 24.7047C74.1537 24.6912 74.1207 24.6716 74.0871 24.6446C74.0548 24.6177 74.0383 24.5846 74.0383 24.5454C74.0383 24.5093 74.0499 24.4829 74.0731 24.4658C74.0951 24.448 74.1262 24.4394 74.1647 24.4394H75.9622C75.9963 24.4394 76.0256 24.448 76.0513 24.4658C76.0757 24.4829 76.0885 24.5093 76.0885 24.5454C76.0885 24.5846 76.072 24.6189 76.0391 24.6483C76.0067 24.6771 75.9731 24.698 75.939 24.7114C75.87 24.7427 75.8053 24.7837 75.7436 24.837C75.6814 24.8903 75.6289 24.9503 75.5825 25.0159C75.5447 25.0741 75.5196 25.1366 75.508 25.2052C75.4958 25.2738 75.4903 25.3657 75.4903 25.4797V27.5613C75.4903 27.6324 75.4897 27.7065 75.4873 27.7868C75.4861 27.8664 75.4867 27.9491 75.4903 28.0318C75.494 28.117 75.5026 28.1966 75.5135 28.2738C75.5257 28.3516 75.5447 28.419 75.5709 28.4766C75.6399 28.6537 75.7455 28.8013 75.8877 28.9214C76.0287 29.0402 76.2508 29.099 76.553 29.099C76.7367 29.099 76.885 29.0592 76.9979 28.9771C77.1108 28.895 77.2097 28.7823 77.2939 28.6347C77.3403 28.5563 77.3751 28.4705 77.4001 28.3804C77.4252 28.2898 77.4429 28.1954 77.4545 28.098C77.4624 28.0012 77.4673 27.9038 77.4697 27.8064C77.4709 27.709 77.4722 27.6098 77.4722 27.5081V25.4735C77.4722 25.3988 77.4648 25.3185 77.449 25.2346C77.4337 25.1501 77.4105 25.0759 77.38 25.0098C77.3348 24.9209 77.2781 24.8542 77.2109 24.8107C77.1438 24.7666 77.0815 24.7316 77.0235 24.7047C76.9741 24.6826 76.9344 24.66 76.9057 24.6348C76.8777 24.611 76.863 24.5785 76.863 24.5387C76.863 24.5037 76.8783 24.4792 76.9094 24.4664C76.9393 24.4529 76.9741 24.4468 77.0126 24.4468H78.3053C78.3388 24.4455 78.3712 24.4535 78.3993 24.4688Z" fill="#0B4198"/>
<path d="M83.9358 24.4688C83.9645 24.4841 83.9779 24.5086 83.9779 24.5448C83.9779 24.584 83.9651 24.6183 83.9388 24.6477C83.9114 24.6765 83.8717 24.6998 83.8186 24.7163C83.7496 24.7439 83.6843 24.7849 83.6227 24.8431C83.561 24.9007 83.5079 24.962 83.4621 25.0288C83.4237 25.0864 83.3987 25.155 83.3877 25.2377C83.3761 25.3185 83.3706 25.3982 83.3706 25.4729V29.5175H83.0264L80.4989 25.6126V28.4435C80.4989 28.5225 80.5044 28.6028 80.516 28.6855C80.5282 28.767 80.5526 28.8338 80.5911 28.8877C80.6368 28.9581 80.6912 29.0212 80.7522 29.077C80.8132 29.1315 80.8785 29.1732 80.9475 29.1989C81.0006 29.2216 81.0415 29.2455 81.0677 29.2712C81.0946 29.2981 81.1074 29.3312 81.1074 29.3704C81.1074 29.4109 81.0934 29.4378 81.0647 29.4507C81.036 29.4635 81.0043 29.4703 80.9701 29.4703H79.6896C79.6432 29.4703 79.6054 29.466 79.5748 29.4574C79.5437 29.4482 79.5284 29.4237 79.5284 29.3845C79.5284 29.349 79.5449 29.3165 79.5779 29.2877C79.6108 29.2589 79.6511 29.232 79.7012 29.2056C79.7592 29.1787 79.8202 29.1395 79.8849 29.0868C79.9502 29.0329 80.007 28.9649 80.057 28.8803C80.0881 28.8276 80.1107 28.7615 80.126 28.6825C80.1412 28.6022 80.1492 28.5225 80.1492 28.4435V25.5201C80.1492 25.4049 80.14 25.31 80.1229 25.2346C80.1052 25.1599 80.0802 25.0937 80.046 25.0361C79.9996 24.9706 79.9459 24.9069 79.8849 24.8462C79.8239 24.7868 79.7616 24.7421 79.7012 24.7108C79.6548 24.6937 79.6188 24.6716 79.5925 24.6446C79.5657 24.6177 79.5522 24.5846 79.5522 24.5454C79.5522 24.5093 79.5632 24.4829 79.587 24.4658C79.609 24.448 79.6401 24.4394 79.678 24.4394H80.798L83.0209 27.8401V25.4735C83.0209 25.3988 83.0123 25.321 82.9977 25.2413C82.9824 25.1623 82.9592 25.0937 82.9287 25.0361C82.8786 24.9559 82.8213 24.8878 82.7566 24.8309C82.6919 24.7733 82.6302 24.7316 82.5722 24.7047C82.5222 24.6826 82.4831 24.66 82.4551 24.6348C82.4264 24.611 82.4123 24.5785 82.4123 24.5387C82.4123 24.5037 82.4276 24.4792 82.4575 24.4664C82.4886 24.4529 82.5222 24.4468 82.5619 24.4468H83.8424C83.8747 24.4455 83.9071 24.4535 83.9358 24.4688Z" fill="#0B4198"/>
<path d="M89.3935 27.1834C89.4167 27.2005 89.4277 27.2299 89.4277 27.2697C89.4277 27.2961 89.4216 27.3175 89.4088 27.3353C89.3954 27.3531 89.3783 27.3714 89.36 27.3886C89.3374 27.4064 89.3142 27.4211 89.2916 27.4351C89.2684 27.448 89.2471 27.4621 89.2281 27.4744C89.1586 27.5136 89.0975 27.573 89.0432 27.6502C88.9907 27.728 88.9626 27.8499 88.9626 28.0184V29.583H88.688L88.4182 28.8932C88.2803 29.1058 88.1002 29.2736 87.875 29.3974C87.651 29.5205 87.4313 29.583 87.2176 29.583C86.9387 29.583 86.672 29.5181 86.4211 29.3876C86.1715 29.2577 85.9506 29.0623 85.7577 28.8013C85.5782 28.5618 85.4507 28.2934 85.3744 27.9926C85.2975 27.6925 85.259 27.3757 85.259 27.0443C85.259 26.6197 85.3213 26.2271 85.4427 25.865C85.566 25.5023 85.7607 25.1887 86.0293 24.9234C86.2283 24.7243 86.4297 24.5785 86.6348 24.4854C86.8398 24.3929 87.0785 24.3463 87.3495 24.3463C87.4337 24.3463 87.5112 24.35 87.582 24.3561C87.6534 24.3622 87.7248 24.3769 87.7981 24.399C87.8707 24.4161 87.9482 24.4468 88.0306 24.4884C88.1136 24.5295 88.2089 24.584 88.3212 24.6508C88.3358 24.6636 88.3523 24.6753 88.37 24.6845C88.3871 24.693 88.4029 24.6998 88.4188 24.7041C88.4365 24.7133 88.4566 24.7175 88.4725 24.7175C88.4902 24.7175 88.5091 24.7126 88.5281 24.7041C88.5732 24.6906 88.6129 24.6612 88.6453 24.6146C88.6776 24.5675 88.7032 24.5117 88.7228 24.4455C88.7264 24.4186 88.7386 24.3873 88.7606 24.353C88.782 24.3175 88.8131 24.2991 88.8552 24.2991C88.8937 24.2991 88.923 24.3175 88.9443 24.353C88.9651 24.388 88.9761 24.4302 88.9761 24.4786V26.3618C88.9761 26.4323 88.9651 26.4917 88.9443 26.5407C88.923 26.5885 88.8937 26.613 88.8552 26.613C88.7978 26.613 88.7563 26.5861 88.7313 26.5334C88.7075 26.4807 88.6892 26.4274 88.677 26.3747C88.6233 26.1578 88.561 25.9477 88.4902 25.7449C88.4194 25.5421 88.334 25.362 88.2351 25.2083C88.1362 25.0484 88.0221 24.9228 87.8957 24.8297C87.77 24.7378 87.626 24.69 87.4648 24.69C87.2848 24.69 87.1322 24.7261 87.0089 24.796C86.8838 24.8664 86.7764 24.9602 86.6836 25.0753C86.5963 25.1899 86.5225 25.3204 86.4632 25.4698C86.4034 25.6175 86.3552 25.7713 86.3168 25.9312C86.2887 26.0224 86.2716 26.1192 86.2594 26.2191C86.2484 26.3183 86.238 26.4164 86.2307 26.5131C86.2264 26.6106 86.2252 26.7086 86.2252 26.806V27.0774C86.2252 27.2753 86.2338 27.4731 86.2496 27.6673C86.2673 27.8615 86.3229 28.0821 86.4144 28.3302C86.5029 28.5728 86.6299 28.7842 86.7965 28.963C86.9625 29.1419 87.1401 29.2314 87.3269 29.2314C87.4777 29.2314 87.618 29.1744 87.7499 29.0629C87.8817 28.9496 87.9745 28.805 88.0276 28.6279C88.0508 28.5483 88.0648 28.4435 88.0703 28.3124C88.077 28.1826 88.0801 28.0625 88.0801 27.951C88.0801 27.8058 88.0398 27.6967 87.9586 27.6238C87.8787 27.5503 87.806 27.497 87.7413 27.4615C87.7187 27.4523 87.6937 27.4413 87.6699 27.4278C87.6449 27.4143 87.6229 27.4015 87.6034 27.388C87.5851 27.3708 87.5692 27.3524 87.5582 27.3347C87.546 27.3169 87.5405 27.2973 87.5405 27.2746C87.5405 27.236 87.5521 27.206 87.5759 27.1852C87.5985 27.1656 87.6382 27.1552 87.6956 27.1552H89.2751C89.3301 27.1564 89.3709 27.1656 89.3935 27.1834Z" fill="#0B4198"/>
<path d="M95.6539 29.2546C95.6801 29.2883 95.6929 29.322 95.6929 29.3569C95.6929 29.3968 95.6807 29.4256 95.6551 29.4427C95.6307 29.4617 95.6008 29.4703 95.5666 29.4703H93.7691C93.7307 29.4703 93.6983 29.4617 93.6714 29.4427C93.6452 29.4262 93.6318 29.3974 93.6318 29.3569C93.6318 29.322 93.6452 29.2908 93.6751 29.2608C93.7026 29.232 93.7429 29.2068 93.7923 29.1854C93.857 29.1584 93.9211 29.1199 93.9846 29.0659C94.048 29.012 94.1017 28.9508 94.1475 28.8797C94.1829 28.827 94.2061 28.7609 94.2202 28.6806C94.2336 28.6016 94.2403 28.5219 94.2403 28.4429V25.4796C94.2403 25.3645 94.2336 25.2732 94.2202 25.2052C94.2061 25.1354 94.1823 25.0729 94.1475 25.0147C94.1024 24.9491 94.0468 24.8885 93.9815 24.8321C93.9168 24.7776 93.8539 24.7365 93.7923 24.7102C93.7575 24.6973 93.7246 24.6759 93.6916 24.6471C93.6593 24.6177 93.6421 24.5834 93.6421 24.5442C93.6421 24.5086 93.655 24.4823 93.6782 24.4645C93.7008 24.4468 93.7307 24.4376 93.7691 24.4376H95.5666C95.6008 24.4376 95.6301 24.4468 95.6551 24.4645C95.6807 24.4823 95.6929 24.5086 95.6929 24.5442C95.6929 24.5834 95.6777 24.6177 95.6447 24.6471C95.6124 24.6759 95.5794 24.6967 95.544 24.7102C95.4793 24.7365 95.4146 24.7776 95.3523 24.8321C95.2889 24.8885 95.2346 24.9485 95.1876 25.0147C95.1497 25.0729 95.1247 25.1347 95.1143 25.2052C95.1021 25.2732 95.0966 25.3645 95.0966 25.4796V28.4429C95.0966 28.5219 95.1027 28.6016 95.1143 28.6806C95.1253 28.7609 95.1503 28.827 95.1876 28.8797C95.2339 28.9502 95.2877 29.0096 95.3493 29.0592C95.4103 29.1076 95.4756 29.145 95.544 29.1719C95.5904 29.194 95.6264 29.2215 95.6539 29.2546Z" fill="#0B4198"/>
<path d="M101.227 24.4688C101.256 24.4841 101.27 24.5086 101.27 24.5448C101.27 24.584 101.257 24.6183 101.231 24.6477C101.204 24.6765 101.163 24.6998 101.11 24.7163C101.041 24.7439 100.976 24.7849 100.914 24.8431C100.853 24.9007 100.8 24.962 100.754 25.0288C100.715 25.0864 100.69 25.155 100.679 25.2377C100.667 25.3185 100.662 25.3982 100.662 25.4729V29.5175H100.317L97.7907 25.6126V28.4435C97.7907 28.5225 97.7968 28.6028 97.8084 28.6855C97.8194 28.767 97.845 28.8338 97.8823 28.8877C97.928 28.9581 97.9817 29.0212 98.0428 29.077C98.105 29.1315 98.1703 29.1732 98.2387 29.1989C98.2924 29.2216 98.3327 29.2455 98.3589 29.2712C98.3852 29.2981 98.3986 29.3312 98.3986 29.3704C98.3986 29.4109 98.3846 29.4378 98.3559 29.4507C98.3278 29.4635 98.2949 29.4703 98.2613 29.4703H96.9808C96.9344 29.4703 96.8953 29.466 96.866 29.4574C96.8349 29.4482 96.8196 29.4237 96.8196 29.3845C96.8196 29.349 96.8367 29.3165 96.8678 29.2877C96.902 29.2589 96.9417 29.232 96.9917 29.2056C97.0497 29.1787 97.1089 29.1395 97.1743 29.0868C97.2396 29.0329 97.2982 28.9649 97.3482 28.8803C97.3793 28.8276 97.4007 28.7615 97.4159 28.6825C97.4312 28.6022 97.4391 28.5225 97.4391 28.4435V25.5201C97.4391 25.4049 97.4294 25.31 97.4135 25.2346C97.3958 25.1599 97.3714 25.0937 97.3366 25.0361C97.2896 24.9706 97.2359 24.9069 97.1736 24.8462C97.1132 24.7868 97.0522 24.7421 96.9911 24.7108C96.9447 24.6937 96.9087 24.6716 96.8813 24.6446C96.855 24.6177 96.8422 24.5846 96.8422 24.5454C96.8422 24.5093 96.8532 24.4829 96.8764 24.4658C96.8996 24.448 96.9301 24.4394 96.9679 24.4394H98.0873L100.311 27.8401V25.4735C100.311 25.3988 100.303 25.321 100.288 25.2413C100.272 25.1623 100.25 25.0937 100.218 25.0361C100.169 24.9559 100.112 24.8878 100.046 24.8309C99.9812 24.7733 99.9208 24.7316 99.8628 24.7047C99.8134 24.6826 99.7737 24.66 99.7456 24.6348C99.7157 24.611 99.7023 24.5785 99.7023 24.5387C99.7023 24.5037 99.7176 24.4792 99.7487 24.4664C99.7798 24.4529 99.8134 24.4468 99.8525 24.4468H101.133C101.167 24.4455 101.198 24.4535 101.227 24.4688Z" fill="#0B4198"/>
<path d="M105.614 27.5344C105.651 27.3004 105.67 27.0841 105.67 26.885C105.67 26.6908 105.654 26.5052 105.623 26.3312C105.593 26.1572 105.537 25.9575 105.457 25.7314C105.342 25.4306 105.183 25.1984 104.978 25.0349C104.773 24.8707 104.567 24.7904 104.36 24.7904C104.338 24.7904 104.308 24.7911 104.271 24.7935C104.234 24.796 104.194 24.799 104.153 24.8033C104.114 24.8125 104.077 24.8247 104.038 24.8401C104 24.856 103.969 24.8787 103.947 24.9099C103.9 24.9675 103.87 25.0287 103.858 25.0955C103.845 25.1617 103.837 25.2499 103.837 25.3602V28.4496C103.837 28.5648 103.842 28.6518 103.848 28.7118C103.856 28.7719 103.884 28.8276 103.93 28.8803C103.972 28.9336 104.026 28.974 104.094 29.0034C104.16 29.031 104.24 29.0457 104.332 29.0457C104.577 29.0457 104.791 28.9704 104.978 28.8172C105.164 28.6647 105.318 28.449 105.44 28.1709C105.52 27.9804 105.579 27.7684 105.614 27.5344ZM106.51 25.9838C106.604 26.2528 106.65 26.5542 106.65 26.8856C106.65 27.1061 106.621 27.342 106.561 27.5944C106.502 27.8462 106.425 28.0655 106.33 28.2505C106.207 28.4803 106.071 28.6739 105.919 28.8301C105.767 28.9875 105.594 29.1125 105.399 29.205C105.215 29.2969 105.023 29.3643 104.822 29.4072C104.62 29.4488 104.425 29.4703 104.233 29.4703H102.511C102.473 29.4703 102.44 29.4605 102.412 29.4439C102.386 29.4261 102.373 29.3974 102.373 29.3569C102.373 29.3214 102.386 29.2895 102.416 29.2608C102.445 29.232 102.484 29.2068 102.533 29.1848C102.598 29.1584 102.662 29.118 102.725 29.0616C102.789 29.0071 102.843 28.9465 102.89 28.8797C102.924 28.827 102.947 28.7602 102.961 28.6818C102.974 28.6016 102.981 28.5219 102.981 28.4429V25.4784C102.981 25.3638 102.974 25.2726 102.961 25.204C102.947 25.1359 102.923 25.0729 102.89 25.0147C102.843 24.9485 102.788 24.8885 102.722 24.8327C102.658 24.7776 102.594 24.7365 102.533 24.7102C102.499 24.6973 102.465 24.6765 102.434 24.6501C102.4 24.6244 102.385 24.5907 102.385 24.5503C102.385 24.5154 102.396 24.4872 102.419 24.4682C102.442 24.448 102.473 24.4382 102.511 24.4382H104.026L104.4 24.4449C104.537 24.4492 104.702 24.4657 104.896 24.4945C105.089 24.5233 105.25 24.5668 105.376 24.6244C105.43 24.6501 105.491 24.6869 105.563 24.7335C105.634 24.7794 105.704 24.8296 105.773 24.8817C105.842 24.9356 105.906 24.9926 105.964 25.0514C106.025 25.1102 106.074 25.1666 106.117 25.2205C106.286 25.4594 106.417 25.7137 106.51 25.9838Z" fill="#0B4198"/>
<path d="M112.362 24.4688C112.391 24.4841 112.405 24.5086 112.405 24.5448C112.405 24.584 112.39 24.6183 112.359 24.6477C112.329 24.6765 112.291 24.6998 112.244 24.7163C112.183 24.7439 112.117 24.78 112.046 24.8272C111.976 24.8732 111.921 24.9363 111.882 25.0153C111.844 25.0913 111.82 25.1672 111.811 25.2444C111.8 25.321 111.796 25.3982 111.796 25.4729V27.747C111.796 27.8658 111.791 27.9785 111.78 28.0858C111.768 28.1911 111.751 28.302 111.728 28.4166C111.682 28.6243 111.602 28.8142 111.489 28.9869C111.376 29.1591 111.245 29.2896 111.095 29.3784C110.965 29.458 110.825 29.5126 110.674 29.5414C110.522 29.5695 110.378 29.5836 110.24 29.5836C110.056 29.5836 109.853 29.5579 109.631 29.5076C109.409 29.4562 109.223 29.3625 109.074 29.2252C108.89 29.0666 108.765 28.873 108.698 28.6463C108.632 28.4184 108.598 28.1654 108.598 27.8873V25.4797C108.598 25.3651 108.591 25.2738 108.577 25.2052C108.565 25.1372 108.54 25.0741 108.507 25.0159C108.46 24.9503 108.405 24.8878 108.34 24.8309C108.275 24.7733 108.211 24.7316 108.15 24.7047C108.115 24.6912 108.083 24.6716 108.049 24.6446C108.016 24.6177 108.001 24.5846 108.001 24.5454C108.001 24.5093 108.012 24.4829 108.035 24.4658C108.059 24.448 108.09 24.4394 108.127 24.4394H109.925C109.959 24.4394 109.989 24.448 110.014 24.4658C110.039 24.4829 110.052 24.5093 110.052 24.5454C110.052 24.5846 110.035 24.6189 110.003 24.6483C109.97 24.6771 109.937 24.698 109.902 24.7114C109.833 24.7427 109.768 24.7837 109.708 24.837C109.646 24.8903 109.593 24.9503 109.547 25.0159C109.508 25.0741 109.483 25.1366 109.472 25.2052C109.46 25.2738 109.454 25.3657 109.454 25.4797V27.5613C109.454 27.6324 109.454 27.7065 109.453 27.7868C109.449 27.8664 109.451 27.9491 109.454 28.0318C109.459 28.117 109.467 28.1966 109.477 28.2738C109.49 28.3516 109.508 28.419 109.536 28.4766C109.603 28.6537 109.71 28.8013 109.851 28.9214C109.993 29.0402 110.216 29.099 110.518 29.099C110.701 29.099 110.849 29.0592 110.963 28.9771C111.076 28.895 111.174 28.7823 111.259 28.6347C111.305 28.5563 111.34 28.4705 111.364 28.3804C111.389 28.2898 111.408 28.1954 111.42 28.098C111.428 28.0012 111.433 27.9038 111.433 27.8064C111.435 27.709 111.437 27.6098 111.437 27.5081V25.4735C111.437 25.3988 111.429 25.3185 111.414 25.2346C111.398 25.1501 111.375 25.0759 111.345 25.0098C111.299 24.9209 111.242 24.8542 111.176 24.8107C111.109 24.7666 111.046 24.7316 110.988 24.7047C110.939 24.6826 110.899 24.66 110.872 24.6348C110.842 24.611 110.828 24.5785 110.828 24.5387C110.828 24.5037 110.844 24.4792 110.875 24.4664C110.904 24.4529 110.939 24.4468 110.979 24.4468H112.27C112.302 24.4455 112.333 24.4535 112.362 24.4688Z" fill="#0B4198"/>
<path d="M116.021 26.5407C116.202 26.6112 116.366 26.7067 116.512 26.8256C116.658 26.945 116.776 27.0964 116.868 27.2826C116.96 27.4676 117.006 27.7004 117.006 27.9785C117.006 28.2352 116.964 28.4686 116.879 28.6782C116.796 28.8883 116.679 29.0592 116.53 29.1915C116.372 29.3337 116.206 29.4341 116.029 29.4942C115.853 29.5536 115.687 29.5836 115.531 29.5836C115.355 29.5836 115.187 29.5469 115.032 29.474C114.873 29.4017 114.703 29.3055 114.52 29.1854C114.489 29.1725 114.455 29.1566 114.416 29.1395C114.379 29.1217 114.343 29.1192 114.312 29.1333C114.268 29.1542 114.226 29.1995 114.19 29.2687C114.152 29.3367 114.127 29.4047 114.113 29.4709C114.105 29.4972 114.088 29.5285 114.064 29.564C114.038 29.5989 114.006 29.6161 113.969 29.6161C113.927 29.6161 113.899 29.6002 113.885 29.5671C113.872 29.5334 113.865 29.4899 113.865 29.4372V27.7408C113.865 27.6741 113.875 27.6153 113.894 27.5644C113.912 27.5136 113.944 27.4878 113.986 27.4878C114.009 27.4878 114.028 27.4958 114.043 27.5111C114.058 27.5264 114.072 27.5454 114.083 27.5675C114.091 27.5895 114.098 27.6128 114.106 27.6373C114.114 27.6612 114.121 27.6845 114.129 27.7071C114.164 27.8444 114.219 27.9975 114.299 28.1672C114.377 28.3375 114.478 28.4981 114.6 28.6481C114.718 28.8025 114.859 28.9312 115.021 29.0329C115.184 29.134 115.367 29.1848 115.57 29.1848C115.77 29.1848 115.938 29.1131 116.078 28.9698C116.218 28.8252 116.297 28.6389 116.316 28.4092C116.333 28.1795 116.282 28.0006 116.168 27.8726C116.053 27.7439 115.926 27.6557 115.788 27.6067L115.397 27.4737C115.325 27.4523 115.24 27.4241 115.142 27.3904C115.045 27.3573 114.946 27.3188 114.846 27.2753C114.747 27.2348 114.652 27.1901 114.556 27.1417C114.463 27.0927 114.383 27.0431 114.318 26.9892C114.165 26.8697 114.045 26.7233 113.958 26.5481C113.872 26.3741 113.83 26.167 113.83 25.9281C113.83 25.6855 113.869 25.4656 113.945 25.2689C114.021 25.0723 114.124 24.9056 114.254 24.769C114.384 24.6324 114.537 24.527 114.711 24.4535C114.884 24.3806 115.067 24.3438 115.259 24.3438C115.405 24.3438 115.538 24.3641 115.661 24.4039C115.783 24.4437 115.941 24.5233 116.132 24.6422C116.147 24.6557 116.165 24.6679 116.181 24.679C116.198 24.6912 116.217 24.6986 116.235 24.7022C116.25 24.7108 116.267 24.7169 116.284 24.7194C116.301 24.7218 116.32 24.7182 116.34 24.709C116.384 24.6912 116.425 24.6581 116.46 24.6091C116.495 24.5613 116.521 24.5037 116.54 24.437C116.544 24.4106 116.555 24.3794 116.575 24.3445C116.594 24.3095 116.625 24.2918 116.666 24.2918C116.705 24.2918 116.735 24.3095 116.755 24.3445C116.777 24.38 116.787 24.4223 116.787 24.4707V26.0886C116.787 26.159 116.777 26.2191 116.755 26.2675C116.735 26.3165 116.705 26.3404 116.666 26.3404C116.62 26.3404 116.583 26.3116 116.554 26.254C116.525 26.1958 116.505 26.1431 116.494 26.0941C116.452 25.9348 116.397 25.7743 116.327 25.6114C116.258 25.4472 116.17 25.2983 116.063 25.166C115.958 25.0337 115.837 24.924 115.695 24.8382C115.553 24.7525 115.39 24.709 115.208 24.709C115.036 24.709 114.877 24.7641 114.733 24.875C114.591 24.9853 114.503 25.1666 114.472 25.4184C114.457 25.5372 114.469 25.6457 114.509 25.7394C114.549 25.8344 114.603 25.9177 114.674 25.9881C114.743 26.0592 114.817 26.1168 114.899 26.1609C114.982 26.2044 115.06 26.2356 115.133 26.2534L115.477 26.3526C115.658 26.4084 115.838 26.469 116.021 26.5407Z" fill="#0B4198"/>
<path d="M129.157 27.7525C129.05 28.3804 128.842 28.8423 128.533 29.1389C128.226 29.4348 127.844 29.583 127.388 29.583C127.098 29.583 126.827 29.5076 126.579 29.3576C126.33 29.2075 126.124 29.0194 125.96 28.7946C125.775 28.5513 125.642 28.2775 125.557 27.9724C125.471 27.6673 125.43 27.3402 125.43 26.9904C125.43 26.632 125.479 26.292 125.577 25.9697C125.674 25.6475 125.825 25.3559 126.027 25.0943C126.218 24.856 126.433 24.6716 126.671 24.5405C126.908 24.4106 127.163 24.3457 127.435 24.3457C127.626 24.3457 127.801 24.3708 127.96 24.4186C128.119 24.467 128.273 24.5448 128.423 24.6514C128.457 24.6771 128.49 24.6961 128.522 24.7065C128.555 24.7188 128.591 24.7182 128.629 24.7035C128.674 24.6906 128.714 24.6612 128.747 24.6146C128.779 24.5681 128.804 24.5111 128.824 24.4455C128.828 24.4186 128.84 24.3886 128.862 24.353C128.882 24.3175 128.914 24.2997 128.956 24.2997C128.995 24.2997 129.025 24.3175 129.045 24.353C129.066 24.3892 129.077 24.4302 129.077 24.478V26.3606C129.077 26.4317 129.066 26.4917 129.045 26.5407C129.025 26.5885 128.995 26.613 128.956 26.613C128.899 26.613 128.858 26.5861 128.832 26.5328C128.808 26.4807 128.79 26.4268 128.779 26.3747C128.734 26.1805 128.676 25.9832 128.613 25.7841C128.548 25.585 128.467 25.4061 128.371 25.2475C128.275 25.0882 128.161 24.9571 128.029 24.856C127.897 24.7543 127.743 24.7028 127.567 24.7028C127.406 24.7028 127.267 24.7372 127.151 24.8058C127.034 24.8738 126.921 24.9822 126.815 25.1274C126.711 25.2689 126.632 25.4135 126.576 25.5611C126.52 25.71 126.476 25.8809 126.445 26.0757C126.419 26.2344 126.404 26.3949 126.401 26.556C126.396 26.7171 126.394 26.8642 126.394 26.9965C126.394 27.1827 126.406 27.3604 126.425 27.5301C126.447 27.701 126.487 27.8756 126.544 28.057C126.582 28.1991 126.635 28.3345 126.702 28.4656C126.768 28.5961 126.848 28.7131 126.94 28.8191C127.029 28.9208 127.13 29.0035 127.246 29.0647C127.36 29.1272 127.486 29.1578 127.625 29.1578C127.796 29.1578 127.952 29.1174 128.091 29.0384C128.232 28.9587 128.354 28.8497 128.457 28.7131C128.561 28.5722 128.644 28.4111 128.709 28.2297C128.775 28.0484 128.823 27.8542 128.853 27.6465L128.859 27.6067C128.867 27.5491 128.892 27.5105 128.933 27.4903C128.975 27.4713 129.014 27.4633 129.048 27.4682C129.083 27.4774 129.112 27.505 129.138 27.5503C129.163 27.5969 129.171 27.6422 129.163 27.6869L129.157 27.7525Z" fill="#0B4198"/>
<path d="M133.126 29.0127C133.264 28.8975 133.376 28.7394 133.465 28.5354C133.556 28.3375 133.624 28.1017 133.669 27.8297C133.713 27.5583 133.734 27.2673 133.734 26.9579C133.734 26.6528 133.713 26.3649 133.669 26.0929C133.624 25.8215 133.556 25.5856 133.465 25.3878C133.376 25.1838 133.264 25.0232 133.126 24.9062C132.987 24.7898 132.827 24.7316 132.643 24.7316C132.455 24.7316 132.294 24.7917 132.158 24.9093C132.021 25.0294 131.909 25.1887 131.815 25.3878C131.727 25.5905 131.662 25.827 131.617 26.0959C131.574 26.3655 131.552 26.6528 131.552 26.9579C131.552 27.2624 131.573 27.5509 131.616 27.8229C131.657 28.0943 131.724 28.3296 131.815 28.5287C131.904 28.7321 132.017 28.8926 132.155 29.009C132.293 29.126 132.455 29.1848 132.643 29.1848C132.827 29.1848 132.987 29.1272 133.126 29.0127ZM133.45 24.5552C133.7 24.6949 133.92 24.8799 134.108 25.1151C134.29 25.3541 134.437 25.631 134.547 25.9471C134.656 26.2632 134.711 26.5995 134.711 26.9573C134.711 27.3194 134.656 27.6588 134.547 27.9749C134.437 28.291 134.29 28.566 134.108 28.8007C133.92 29.0396 133.7 29.2246 133.45 29.3612C133.199 29.496 132.93 29.5634 132.643 29.5634C132.355 29.5634 132.087 29.496 131.833 29.3612C131.582 29.2246 131.363 29.0396 131.179 28.8007C130.991 28.566 130.844 28.291 130.736 27.9749C130.629 27.6581 130.576 27.3194 130.576 26.9573C130.576 26.5995 130.629 26.2626 130.736 25.9471C130.844 25.6304 130.991 25.3534 131.179 25.1151C131.367 24.8799 131.585 24.6943 131.837 24.5552C132.087 24.4149 132.356 24.3457 132.643 24.3457C132.93 24.3457 133.199 24.4149 133.45 24.5552Z" fill="#0B4198"/>
<path d="M136.916 28.8172C137.011 28.9299 137.059 29.0616 137.059 29.2117C137.059 29.371 137.011 29.5052 136.916 29.613C136.82 29.7208 136.707 29.7754 136.576 29.7754C136.44 29.7754 136.322 29.7208 136.227 29.613C136.131 29.5046 136.084 29.3704 136.084 29.2117C136.084 29.0623 136.131 28.9299 136.227 28.8172C136.322 28.7051 136.44 28.6487 136.576 28.6487C136.707 28.6481 136.819 28.7051 136.916 28.8172Z" fill="#0B4198"/>
<path d="M139.649 28.5752C139.745 28.6769 139.804 28.7805 139.827 28.8871C139.85 29.02 139.849 29.164 139.824 29.3208C139.799 29.4776 139.739 29.6314 139.644 29.7815C139.54 29.9408 139.432 30.0535 139.323 30.1197C139.21 30.1865 139.127 30.2306 139.07 30.2532C139.008 30.2845 138.966 30.2845 138.943 30.2532C138.92 30.222 138.933 30.1821 138.983 30.1331C138.998 30.1203 139.018 30.1056 139.04 30.0909C139.063 30.0749 139.088 30.0578 139.116 30.04C139.142 30.0235 139.172 30.002 139.205 29.9769C139.238 29.9537 139.271 29.9218 139.305 29.8814C139.355 29.8287 139.394 29.7741 139.423 29.7196C139.451 29.6633 139.476 29.5922 139.494 29.5027C139.39 29.5567 139.294 29.5671 139.204 29.5364C139.114 29.5052 139.046 29.4709 139 29.4311C138.95 29.3912 138.906 29.338 138.868 29.2712C138.829 29.2056 138.81 29.1052 138.81 28.9728C138.81 28.8356 138.86 28.7094 138.959 28.5955C139.059 28.4803 139.175 28.4239 139.304 28.4239C139.438 28.4233 139.553 28.4729 139.649 28.5752Z" fill="#0B4198"/>
<path d="M148.183 29.4041C148.183 29.4299 148.177 29.4482 148.169 29.4574C148.159 29.466 148.144 29.4703 148.126 29.4703H144.646C144.608 29.4703 144.575 29.4611 144.548 29.4446C144.522 29.4268 144.508 29.398 144.508 29.3576C144.508 29.3226 144.522 29.2902 144.551 29.2614C144.581 29.2326 144.619 29.2075 144.669 29.186C144.734 29.1591 144.799 29.1193 144.861 29.0666C144.924 29.0133 144.979 28.9514 145.024 28.8803C145.06 28.8277 145.083 28.7615 145.096 28.6825C145.109 28.6022 145.117 28.5226 145.117 28.4435V25.479C145.117 25.3645 145.109 25.2732 145.096 25.2046C145.083 25.1366 145.059 25.0735 145.024 25.0153C144.979 24.9497 144.923 24.8873 144.858 24.8303C144.794 24.7727 144.73 24.731 144.669 24.7041C144.634 24.6906 144.601 24.671 144.568 24.644C144.536 24.6171 144.518 24.584 144.518 24.5448C144.518 24.5093 144.531 24.4823 144.554 24.4652C144.578 24.4474 144.608 24.4388 144.646 24.4388H146.443C146.478 24.4388 146.507 24.4474 146.533 24.4652C146.557 24.4823 146.569 24.5093 146.569 24.5448C146.569 24.584 146.553 24.6183 146.521 24.6477C146.487 24.6765 146.455 24.6973 146.42 24.7108C146.351 24.7421 146.286 24.7837 146.225 24.8364C146.165 24.8897 146.11 24.9497 146.064 25.0153C146.025 25.0735 146.002 25.136 145.99 25.2046C145.978 25.2732 145.972 25.3651 145.972 25.479V28.5164C145.972 28.7505 146.036 28.9055 146.165 28.9839C146.293 29.0611 146.446 29.099 146.622 29.099C146.835 29.099 147.015 29.0586 147.158 28.9741C147.302 28.8901 147.423 28.7774 147.524 28.6347C147.618 28.4987 147.695 28.3394 147.756 28.158C147.814 27.9773 147.872 27.7917 147.925 27.6018C147.933 27.5663 147.947 27.5301 147.968 27.4927C147.988 27.4548 148.018 27.4358 148.057 27.4358C148.096 27.4358 148.126 27.4566 148.149 27.4989C148.171 27.5405 148.184 27.5846 148.184 27.6281V29.4041H148.183Z" fill="#0B4198"/>
<path d="M153.231 26.0892C153.231 26.1548 153.218 26.2111 153.193 26.2552C153.169 26.2993 153.139 26.3208 153.105 26.3208C153.069 26.3208 153.038 26.3006 153.012 26.2608C152.986 26.2209 152.966 26.1719 152.955 26.1156C152.92 25.9832 152.88 25.8442 152.837 25.6978C152.794 25.5526 152.731 25.3816 152.651 25.1874C152.586 25.0367 152.513 24.9271 152.433 24.856C152.352 24.7856 152.265 24.7525 152.168 24.7568C152.084 24.7653 152.006 24.8039 151.935 24.8726C151.865 24.9406 151.829 25.0723 151.829 25.2671V28.4429C151.829 28.522 151.835 28.6022 151.846 28.6818C151.858 28.7603 151.882 28.8258 151.921 28.8797C151.967 28.9502 152.02 29.0108 152.082 29.0586C152.144 29.1076 152.209 29.145 152.277 29.1719C152.322 29.1934 152.359 29.2216 152.386 29.254C152.412 29.2877 152.427 29.322 152.427 29.3576C152.427 29.398 152.413 29.425 152.388 29.4446C152.363 29.4623 152.333 29.4709 152.299 29.4709H150.503C150.464 29.4709 150.431 29.4623 150.405 29.4446C150.378 29.4256 150.365 29.3986 150.365 29.3576C150.365 29.322 150.379 29.2902 150.408 29.262C150.436 29.2332 150.475 29.2075 150.526 29.1854C150.591 29.1591 150.654 29.1193 150.718 29.0666C150.781 29.0133 150.836 28.9514 150.881 28.8803C150.917 28.8264 150.94 28.7609 150.953 28.6825C150.966 28.6028 150.973 28.5226 150.973 28.4435V25.2879C150.973 25.0937 150.935 24.9583 150.862 24.8836C150.785 24.8082 150.708 24.7666 150.627 24.758C150.536 24.7537 150.454 24.7745 150.381 24.8235C150.309 24.8719 150.234 24.9834 150.157 25.155C150.088 25.3051 150.026 25.4656 149.971 25.6359C149.914 25.8056 149.868 25.9636 149.83 26.11C149.818 26.1529 149.8 26.1995 149.775 26.2491C149.751 26.2975 149.72 26.3214 149.686 26.3214C149.648 26.3214 149.62 26.3049 149.6 26.2718C149.581 26.2381 149.572 26.1866 149.572 26.1162V24.5056C149.572 24.478 149.575 24.4615 149.583 24.4523C149.59 24.4431 149.604 24.4388 149.629 24.4388H153.172C153.191 24.4388 153.207 24.4437 153.215 24.4523C153.224 24.4609 153.229 24.478 153.229 24.5056V26.0892H153.231Z" fill="#0B4198"/>
<path d="M157.77 27.5344C157.807 27.3004 157.826 27.0841 157.826 26.885C157.826 26.6908 157.811 26.5052 157.779 26.3312C157.748 26.1572 157.694 25.9575 157.613 25.7314C157.497 25.4306 157.338 25.1984 157.133 25.0349C156.929 24.8707 156.722 24.7904 156.515 24.7904C156.493 24.7904 156.463 24.7911 156.426 24.7935C156.39 24.796 156.351 24.799 156.308 24.8033C156.271 24.8125 156.232 24.8247 156.194 24.8401C156.155 24.856 156.125 24.8787 156.102 24.9099C156.056 24.9675 156.026 25.0287 156.014 25.0955C156 25.1617 155.993 25.2499 155.993 25.3602V28.4496C155.993 28.5648 155.996 28.6518 156.005 28.7118C156.013 28.7719 156.039 28.8276 156.086 28.8803C156.127 28.9336 156.182 28.974 156.249 29.0034C156.316 29.031 156.396 29.0457 156.489 29.0457C156.734 29.0457 156.948 28.9704 157.134 28.8172C157.32 28.6647 157.474 28.449 157.598 28.1709C157.676 27.9804 157.734 27.7684 157.77 27.5344ZM158.666 25.9838C158.76 26.2528 158.806 26.5542 158.806 26.8856C158.806 27.1061 158.777 27.342 158.718 27.5944C158.657 27.8462 158.581 28.0655 158.485 28.2505C158.363 28.4803 158.224 28.6739 158.074 28.8301C157.922 28.9875 157.75 29.1125 157.554 29.205C157.37 29.2969 157.178 29.3643 156.977 29.4072C156.775 29.4488 156.581 29.4703 156.389 29.4703H154.666C154.628 29.4703 154.595 29.4605 154.568 29.4439C154.541 29.4261 154.527 29.3974 154.527 29.3569C154.527 29.3214 154.542 29.2895 154.571 29.2608C154.6 29.232 154.639 29.2068 154.688 29.1848C154.753 29.1584 154.819 29.118 154.88 29.0616C154.944 29.0071 154.999 28.9465 155.044 28.8797C155.079 28.827 155.103 28.7602 155.116 28.6818C155.129 28.6016 155.136 28.5219 155.136 28.4429V25.4784C155.136 25.3638 155.129 25.2726 155.116 25.204C155.103 25.1359 155.078 25.0729 155.044 25.0147C154.999 24.9485 154.944 24.8885 154.879 24.8327C154.814 24.7776 154.75 24.7365 154.688 24.7102C154.654 24.6973 154.62 24.6765 154.589 24.6501C154.555 24.6244 154.54 24.5907 154.54 24.5503C154.54 24.5154 154.552 24.4872 154.574 24.4682C154.597 24.448 154.628 24.4382 154.666 24.4382H156.182L156.555 24.4449C156.692 24.4492 156.858 24.4657 157.052 24.4945C157.244 24.5233 157.405 24.5668 157.531 24.6244C157.585 24.6501 157.646 24.6869 157.717 24.7335C157.789 24.7794 157.858 24.8296 157.926 24.8817C157.996 24.9356 158.06 24.9926 158.12 25.0514C158.179 25.1102 158.229 25.1666 158.272 25.2205C158.442 25.4594 158.573 25.7137 158.666 25.9838Z" fill="#0B4198"/>
<path d="M161.013 28.8172C161.108 28.9299 161.156 29.0616 161.156 29.2117C161.156 29.371 161.108 29.5052 161.013 29.613C160.917 29.7208 160.804 29.7754 160.674 29.7754C160.536 29.7754 160.419 29.7208 160.324 29.613C160.227 29.5046 160.18 29.3704 160.18 29.2117C160.18 29.0623 160.227 28.9299 160.324 28.8172C160.419 28.7051 160.536 28.6487 160.674 28.6487C160.804 28.6481 160.917 28.7051 161.013 28.8172Z" fill="#0B4198"/>
<path d="M4.57519 6.27388C4.57519 6.27388 7.06725 3.45825 10.8954 5.18831C14.7247 6.91836 14.5715 14.793 14.4561 15.2739C14.3408 15.7561 14.3145 21.2587 9.36948 28.0386C9.36948 28.0386 6.23839 27.4725 4.2395 23.8519C4.2395 23.8519 8.17747 17.6779 8.5217 16.9096C8.86594 16.1414 12.3883 9.6084 11.2017 7.03293C10.0152 4.45807 4.82543 7.71599 1.36841 14.605C1.36902 14.605 0.687264 10.4299 4.57519 6.27388Z" fill="#1D4996"/>
<path d="M26.4104 6.27388C26.4104 6.27388 23.9183 3.45825 20.0896 5.18831C16.2609 6.91836 16.4141 14.793 16.5288 15.2739C16.6436 15.7561 16.671 21.2587 21.6155 28.0386C21.6155 28.0386 24.746 27.4725 26.7449 23.8519C26.7449 23.8519 22.8075 17.6779 22.4626 16.9096C22.1184 16.1414 18.5961 9.6084 19.7826 7.03293C20.9697 4.45807 26.1595 7.71599 29.6165 14.605C29.6171 14.605 30.2983 10.4299 26.4104 6.27388Z" fill="#008F3B"/>
<path d="M19.3194 2.42108C19.3194 3.41231 17.514 4.21485 15.2868 4.21485C13.059 4.21485 11.2536 3.41231 11.2536 2.42108C11.2536 1.43108 13.059 0.62793 15.2868 0.62793C17.5146 0.627317 19.3194 1.43108 19.3194 2.42108Z" fill="#E86318"/>
<path d="M15.4418 29.4158C7.66109 29.4158 1.35314 23.0849 1.35314 15.2739C1.35314 7.46422 7.66048 1.13336 15.4418 1.13336C23.2238 1.13336 29.5305 7.46422 29.5305 15.2739C29.5299 23.0849 23.2232 29.4158 15.4418 29.4158ZM15.4418 0C6.9128 0 0 6.93981 0 15.5006C0 24.0608 6.91341 31 15.4418 31C23.9702 31 30.8849 24.0608 30.8849 15.5006C30.8843 6.93981 23.9702 0 15.4418 0Z" fill="#3755A4"/>
</svg>
